<svg width="62" height="63" viewBox="0 0 62 63" fill="none" xmlns="http://www.w3.org/2000/svg">
<path d="M61.039 31.3629C61.039 57.2349 52.2315 44.0237 31.8641 60.5377C15.7513 60.5377 13.4234 52.0055 2.68927 31.3629C-8.04483 10.7203 15.7513 2.18799 31.8641 2.18799C47.977 2.18799 61.039 5.4908 61.039 31.3629Z" fill="url(#paint0_linear_177_170)" fill-opacity="0.26"/>
<path d="M33.1259 0.137033C32.1617 0.384602 31.2887 0.775496 30.546 1.28366C30.2072 1.5182 26.1289 5.45321 21.4772 10.0527C12.0957 19.3039 12.4084 18.9391 12.4084 20.6069C12.4084 21.7535 12.7863 22.6005 13.6072 23.3562C14.6887 24.3465 16.4347 24.5941 17.7116 23.9426C18.0113 23.7992 20.0961 22.0532 22.3372 20.0597C24.5783 18.0791 26.5198 16.3722 26.6501 16.268C26.8585 16.0856 26.9107 16.0986 27.2364 16.3983C28.3179 17.4276 29.673 17.6361 31.7578 17.1149C33.2171 16.7371 34.7807 16.5025 35.7188 16.5025C37.4909 16.5025 39.6929 17.1801 40.8135 18.0661C41.5692 18.6655 43.3804 19.4733 44.4619 19.7079C45.6606 19.9685 47.9799 19.8903 49.4132 19.5645C51.4719 19.0824 52.5143 18.5482 56.5666 15.851C58.6905 14.4308 60.5537 13.1408 60.7101 12.9714C61.4398 12.1766 61.4528 11.2515 60.7492 9.76609C59.5504 7.19921 57.4787 4.11114 55.5242 1.97424C54.3255 0.671257 54.143 0.5149 53.4134 0.319452C52.5795 0.0979443 52.0583 0.293392 50.6771 1.30972C49.1135 2.46938 48.3708 2.743 46.8072 2.75603C45.6085 2.75603 45.4261 2.71694 41.009 1.40093C36.7612 0.137033 36.3573 0.0458241 35.1455 0.00673485C34.3116 -0.0193233 33.5819 0.032795 33.1259 0.137033ZM38.0382 2.41726C39.2369 2.76906 41.3738 3.38147 42.768 3.79842C45.7388 4.65839 46.7942 4.78869 48.2536 4.46294C49.5174 4.18932 50.5598 3.68115 51.7456 2.76906C52.2798 2.36514 52.814 2.03939 52.9443 2.03939C53.3482 2.03939 55.6024 4.69748 57.0357 6.86043C58.0911 8.43705 59.4462 11.017 59.4462 11.4469C59.4462 11.7206 58.938 12.0984 55.8109 14.1962C50.7032 17.6231 49.778 18.001 46.5466 18.001C44.8137 18.001 44.5922 17.9619 43.7843 17.6491C43.3022 17.4537 42.5856 17.0758 42.1686 16.8022C40.2402 15.5122 39.0936 15.0562 37.0218 14.8086C35.4843 14.6262 33.5298 14.7956 31.6275 15.2777C29.8945 15.7207 29.1257 15.6686 28.5133 15.0823C27.7576 14.3526 27.6534 13.3102 28.2397 12.4111C28.6436 11.7987 29.1127 11.6294 32.0835 11.03C35.9534 10.2612 39.263 9.97457 41.1914 10.2482C42.1816 10.3915 42.4032 10.3915 42.5856 10.2352C43.1328 9.77912 43.0416 8.9843 42.4032 8.69764C40.9047 8.00706 36.3703 8.29372 31.0672 9.40125C28.6697 9.90942 27.927 10.183 27.2234 10.8736C26.4807 11.5772 26.194 12.2418 26.1028 13.4014L26.0246 14.3917L21.7248 18.1964C19.3664 20.2942 17.2556 22.1184 17.034 22.2487C16.2262 22.7568 14.9362 22.4311 14.4411 21.5972C14.1544 21.1021 14.1154 20.3724 14.3369 19.8251C14.5063 19.4082 30.8457 3.2642 31.6666 2.70391C32.4744 2.14363 33.7253 1.79182 34.8458 1.7788C35.6667 1.7788 36.24 1.89606 38.0382 2.41726Z" fill="url(#paint1_linear_177_170)"/>
<path d="M31.5226 21.3495C29.1251 21.558 27.0664 22.5613 25.2422 24.3854C24.4604 25.1672 23.8871 25.8839 23.5222 26.5354C20.1605 32.5552 23.1053 39.8649 29.7375 41.9366C30.5844 42.1972 30.9883 42.2363 32.6692 42.2363C34.35 42.2363 34.767 42.1972 35.6009 41.9366C39.2883 40.79 42.0246 37.8713 42.9106 34.1578C43.1322 33.1806 43.1712 32.7245 43.1191 31.4216C43.0931 30.5616 42.9628 29.5062 42.8455 29.0762C42.3504 27.2911 41.0865 25.1933 39.7965 24.0467C37.4772 21.9749 34.6497 21.0628 31.5226 21.3495ZM34.8843 23.3561C37.2166 23.9555 39.3535 25.7145 40.4219 27.8905C41.1125 29.3107 41.334 30.2358 41.334 31.8125C41.334 34.2751 40.5392 36.1905 38.7932 37.9495C37.0993 39.6434 35.0406 40.5164 32.6692 40.5034C31.2098 40.5034 30.0241 40.2297 28.7211 39.6043C27.9263 39.2264 27.4703 38.8616 26.5452 37.9365C25.2552 36.6596 24.6037 35.565 24.1868 33.9624C23.8871 32.8418 23.8871 30.7961 24.1737 29.6625C25.4116 24.9588 30.1675 22.1573 34.8843 23.3561Z" fill="url(#paint2_linear_177_170)"/>
<path d="M32.0572 25.7146C31.9399 25.8449 31.8357 26.0274 31.8096 26.1186C31.7705 26.2228 31.4057 26.4834 30.9757 26.7049C28.8909 27.8255 28.5131 30.1057 30.1548 31.7344C30.7412 32.3338 31.4578 32.6205 32.5263 32.7117C33.5817 32.7898 33.9856 33.0244 34.2592 33.6759C34.4417 34.1189 34.4417 34.184 34.2201 34.601C34.0508 34.9007 33.7771 35.1352 33.3993 35.3046C32.422 35.7346 31.536 35.4088 30.9757 34.4055C30.6239 33.7671 30.1288 33.5586 29.6336 33.8453C29.1255 34.1189 29.0864 34.8355 29.5424 35.5913C29.9073 36.2167 30.4024 36.6336 31.2754 37.0767C31.5751 37.233 31.8227 37.4285 31.8227 37.5327C31.8227 37.8194 32.2787 38.1321 32.6957 38.1321C33.0996 38.1321 33.5165 37.7933 33.5165 37.4545C33.5165 37.3373 33.7511 37.1679 34.0898 37.0376C34.7804 36.777 35.5101 36.0994 35.888 35.3567C36.4613 34.2362 36.1225 32.7638 35.0801 31.8387C34.3765 31.2002 33.9074 31.0048 32.7869 30.8875C32.2917 30.8354 31.7575 30.7051 31.5881 30.6008C31.2493 30.3793 30.9106 29.793 30.9106 29.4151C30.9106 29.0112 31.536 28.3858 32.0833 28.2164C33.0475 27.9297 33.7902 28.2945 34.4807 29.4021C34.6892 29.7409 34.8716 29.8712 35.1713 29.8972C35.6795 29.9493 36.1225 29.5584 36.1225 29.0763C36.1225 28.2424 35.0801 26.9655 34.0898 26.5876C33.725 26.4443 33.5165 26.288 33.5165 26.1446C33.5165 25.5713 32.4611 25.2586 32.0572 25.7146Z" fill="url(#paint3_linear_177_170)"/>
<path d="M47.2633 40.7901C46.8855 40.9725 44.944 42.5361 42.5856 44.5817L38.5594 48.0477L38.1555 47.6698C37.1913 46.7577 35.9534 46.5362 34.2335 46.9662C30.52 47.9174 28.0573 47.6177 25.5426 45.9238C24.6566 45.3244 23.9529 44.9596 23.1321 44.699C22.0636 44.3472 21.8551 44.3211 20.0961 44.3342C17.9071 44.3472 16.8647 44.5817 15.0796 45.4156C13.8678 45.9759 7.90018 49.7937 7.23566 50.4191C6.29751 51.3051 6.3366 52.2042 7.39202 54.3281C8.55167 56.6995 10.1022 58.9797 11.9394 61.0645C12.9167 62.172 13.4118 62.4847 14.1936 62.4978C14.9233 62.4978 15.1839 62.3805 16.3565 61.5466C17.7117 60.5694 18.5847 60.2566 19.9007 60.2566C20.8649 60.2566 21.2949 60.3609 25.2429 61.5857C28.9303 62.7453 29.6991 62.9408 30.6503 62.9929C32.3963 63.0711 34.2856 62.4978 35.4583 61.5205C35.9404 61.1036 36.0056 60.5563 35.6016 60.1524C35.2238 59.7745 34.8329 59.8267 33.9599 60.3479C32.8393 61.0254 31.9924 61.2339 30.7285 61.1557C29.8685 61.1036 28.9303 60.869 25.6338 59.8267C21.8161 58.6149 21.5164 58.5497 20.2134 58.4976C18.2198 58.4064 16.9038 58.8364 15.249 60.1003C14.8451 60.413 14.389 60.6736 14.2457 60.6736C13.8809 60.6736 12.2521 58.7582 10.9101 56.7646C9.73739 55.0186 8.36925 52.4518 8.36925 51.9957C8.36925 51.7872 9.07287 51.2661 11.6007 49.6243C16.2914 46.5753 17.0992 46.2365 19.7964 46.1193C21.2558 46.0541 21.4773 46.0802 22.4806 46.3799C23.1972 46.6144 23.8617 46.9401 24.4741 47.3571C26.5329 48.8034 27.888 49.2334 30.52 49.2464C31.9012 49.2464 32.5657 49.1943 33.582 48.9598C35.4583 48.5298 36.1359 48.4907 36.6049 48.7383C37.4779 49.1813 37.8167 50.4061 37.2955 51.253C36.9307 51.8524 36.5658 52.0478 35.1977 52.3475C31.3539 53.1814 27.1974 53.5593 25.1908 53.2466C24.1484 53.0902 24.1223 53.0902 23.8096 53.3769C23.2102 53.9372 23.5099 54.6929 24.4351 54.9665C25.3732 55.2402 29.3473 55.162 31.5624 54.8232C34.5332 54.3802 36.644 53.9111 37.3867 53.5593C38.5333 53.012 39.237 51.9175 39.3542 50.5364L39.4194 49.7025L43.5107 46.1714C46.0776 43.9563 47.7976 42.5491 48.1233 42.4318C49.1918 42.0409 50.3254 42.8748 50.3254 44.0475C50.3254 44.7511 50.1429 44.9987 48.41 46.6665C47.133 47.8783 46.9376 48.1128 46.9376 48.4907C46.9376 49.0119 47.2764 49.3376 47.8367 49.3376C48.1885 49.3376 48.4881 49.1031 49.9345 47.6959C51.8759 45.7935 52.1886 45.2854 52.2016 43.9954C52.2016 42.966 51.8759 42.1582 51.1853 41.4937C50.4817 40.8161 49.8693 40.5555 48.8269 40.5034C48.0712 40.4773 47.8106 40.5164 47.2633 40.7901Z" fill="url(#paint4_linear_177_170)"/>
<path d="M43.1327 51.7871C42.5723 52.3475 42.1162 52.8948 42.1162 53.0121C42.1162 53.416 42.6375 53.8982 43.0675 53.8982C43.4193 53.8982 43.6539 53.7288 44.4358 52.9469C45.4652 51.9044 45.5695 51.6047 45.0482 51.0965C44.54 50.5752 44.2533 50.6795 43.1327 51.7871Z" fill="url(#paint5_linear_177_170)"/>
<path d="M39.185 55.5786C38.5986 55.9304 37.4258 57.2336 37.4258 57.5202C37.4258 57.9633 37.921 58.4585 38.364 58.4585C38.6768 58.4585 38.9504 58.2761 39.6802 57.5593C40.449 56.8166 40.5924 56.595 40.5924 56.2432C40.5924 55.9565 40.5012 55.735 40.3057 55.5656C39.9278 55.2658 39.6802 55.2658 39.185 55.5786Z" fill="url(#paint6_linear_177_170)"/>
<defs>
<linearGradient id="paint0_linear_177_170" x1="2.28026" y1="36.8583" x2="146.333" y2="6.21445" gradientUnits="userSpaceOnUse">
<stop stop-color="#3B3BF9"/>
<stop offset="0.51" stop-color="#10E0F9"/>
<stop offset="1" stop-color="#92FFFF"/>
</linearGradient>
<linearGradient id="paint1_linear_177_170" x1="14.2325" y1="9.86328" x2="117.502" y2="52.0809" gradientUnits="userSpaceOnUse">
<stop stop-color="#3B3BF9"/>
<stop offset="0.51" stop-color="#10E0F9"/>
<stop offset="1" stop-color="#92FFFF"/>
</linearGradient>
<linearGradient id="paint2_linear_177_170" x1="22.9091" y1="29.7952" x2="72.6776" y2="39.9532" gradientUnits="userSpaceOnUse">
<stop stop-color="#3B3BF9"/>
<stop offset="0.51" stop-color="#10E0F9"/>
<stop offset="1" stop-color="#92FFFF"/>
</linearGradient>
<linearGradient id="paint3_linear_177_170" x1="29.3946" y1="30.624" x2="46.5249" y2="32.5629" gradientUnits="userSpaceOnUse">
<stop stop-color="#3B3BF9"/>
<stop offset="0.51" stop-color="#10E0F9"/>
<stop offset="1" stop-color="#92FFFF"/>
</linearGradient>
<linearGradient id="paint4_linear_177_170" x1="8.26934" y1="49.6289" x2="104.484" y2="89.3081" gradientUnits="userSpaceOnUse">
<stop stop-color="#3B3BF9"/>
<stop offset="0.51" stop-color="#10E0F9"/>
<stop offset="1" stop-color="#92FFFF"/>
</linearGradient>
<linearGradient id="paint5_linear_177_170" x1="42.2372" y1="52.0537" x2="49.8827" y2="53.6758" gradientUnits="userSpaceOnUse">
<stop stop-color="#3B3BF9"/>
<stop offset="0.51" stop-color="#10E0F9"/>
<stop offset="1" stop-color="#92FFFF"/>
</linearGradient>
<linearGradient id="paint6_linear_177_170" x1="37.5441" y1="56.607" x2="45.0356" y2="58.155" gradientUnits="userSpaceOnUse">
<stop stop-color="#3B3BF9"/>
<stop offset="0.51" stop-color="#10E0F9"/>
<stop offset="1" stop-color="#92FFFF"/>
</linearGradient>
</defs>
</svg>
