<svg width="84" height="80" viewBox="0 0 84 80" fill="none" xmlns="http://www.w3.org/2000/svg">
<path d="M26.2819 3.12743C25.3131 3.36181 23.8913 4.18993 23.2038 4.93993C22.86 5.31493 22.3444 6.09618 22.0788 6.67429L21.5788 7.72117L21.5319 21.6118L21.485 35.4867L20.7506 35.3773C19.8288 35.2523 18.3288 34.4555 17.8132 33.8461C17.5944 33.5961 17.235 33.018 17.0007 32.5805C16.6569 31.9086 16.5944 31.5805 16.5944 30.4555C16.5944 29.2992 16.6569 29.018 17.0319 28.268C17.2819 27.7992 17.9069 27.0024 18.4225 26.518C19.2819 25.6899 19.3444 25.5805 19.2507 25.1117C19.1257 24.4555 18.6413 24.0492 17.9694 24.0492C17.5475 24.0492 17.2663 24.2211 16.4538 24.9867C15.3444 26.018 14.61 27.2367 14.235 28.6586C13.1569 32.8461 16.0632 37.1742 20.4225 37.8617L21.5006 38.0179V41.7367V45.4554H20.9694C20.36 45.4554 20.4069 45.5336 20.0006 43.6273C19.7038 42.1429 19.4694 41.8773 18.2194 41.4711C17.7507 41.3148 16.7975 40.9242 16.11 40.5961C15.3132 40.2054 14.7507 40.0179 14.5475 40.0804C14.3757 40.1429 13.7038 40.5336 13.0475 40.9398C12.3913 41.3617 11.7976 41.7054 11.7194 41.7054C11.6569 41.7054 11.2663 41.3773 10.8601 40.9867L10.1257 40.2679L10.9069 39.0648C12.0788 37.2836 12.0788 37.3305 11.3757 35.8617C11.0319 35.1586 10.6101 34.1273 10.4226 33.5336C10.2194 32.9555 9.95381 32.4242 9.81318 32.3461C9.65693 32.268 8.86006 32.0492 8.03194 31.8617L6.50069 31.518V30.4555V29.393L8.01631 29.0492C8.84444 28.8617 9.65693 28.6274 9.81318 28.518C9.96943 28.4242 10.2507 27.893 10.4226 27.3305C10.6101 26.768 11.0319 25.7524 11.3757 25.0492C12.0788 23.5805 12.0788 23.6274 10.9069 21.8461L10.1257 20.643L10.8601 19.9243C11.2663 19.5336 11.6569 19.2055 11.7194 19.2055C11.7976 19.2055 12.3913 19.5493 13.0475 19.9711C13.7038 20.3774 14.3757 20.768 14.5475 20.8305C14.7507 20.893 15.3132 20.7055 16.11 20.3149C16.7975 19.9868 17.8288 19.5649 18.3913 19.3774C19.0788 19.1586 19.485 18.9243 19.61 18.6899C19.9538 18.0336 20.7038 14.1743 20.5631 13.7993C20.3913 13.3618 19.8132 12.9555 19.36 12.9555C18.61 12.9555 18.235 13.5493 17.8757 15.3149L17.5475 16.9711L16.1725 17.5493L14.7975 18.1274L13.3288 17.1743C12.4069 16.5961 11.6882 16.2368 11.4069 16.2368C11.0476 16.2368 10.6257 16.5805 9.12569 18.0805C7.62569 19.5805 7.28194 20.0024 7.28194 20.3774C7.28194 20.6586 7.62569 21.3774 8.23506 22.3149L9.17256 23.7836L8.71944 24.8149C8.45381 25.3774 8.20381 25.9867 8.15694 26.1742C8.07881 26.4399 7.81319 26.5492 6.76632 26.768C6.0632 26.9086 5.2507 27.1117 4.98507 27.1899C4.07883 27.4711 4.0007 27.7524 4.0007 30.4555C4.0007 33.6586 3.92258 33.5492 6.75069 34.143L8.00069 34.4086L8.59444 35.7836L9.17256 37.1586L8.21944 38.6273C7.64132 39.5492 7.28194 40.2679 7.28194 40.5492C7.28194 40.9086 7.62569 41.3304 9.12569 42.8304C10.6257 44.3304 11.0476 44.6742 11.4069 44.6742C11.6882 44.6742 12.4069 44.3148 13.3288 43.7367L14.7975 42.7836L16.1725 43.3617L17.5475 43.9398L17.8757 45.5961C18.3288 47.7679 18.5163 47.9554 20.2506 47.9554H21.485L21.5319 60.5804L21.5788 73.2053L22.1569 74.3928C22.86 75.8147 23.7663 76.6897 25.2194 77.3772L26.2663 77.8772H41.5006H56.7349L57.7818 77.3772C59.2349 76.6897 60.1411 75.8147 60.8443 74.3928L61.4224 73.2053L61.4693 59.3148L61.5161 45.4242L62.2349 45.5336C63.063 45.6586 64.188 46.1742 64.8911 46.7679C65.1411 46.9867 65.5942 47.596 65.8911 48.1429C66.3599 49.0179 66.4067 49.2523 66.4224 50.3773C66.4224 51.4867 66.3599 51.7523 65.9067 52.6742C65.563 53.3773 65.1567 53.9241 64.6255 54.3616C64.188 54.721 63.7974 55.1741 63.7505 55.3773C63.6411 55.7991 64.0318 56.6273 64.3911 56.7679C65.1099 57.0335 65.5474 56.8616 66.5474 55.9241C67.6567 54.8929 68.3911 53.6741 68.7661 52.2523C69.8442 48.0648 66.938 43.7367 62.5786 43.0492L61.5005 42.8929V39.1742V35.4555H62.0318C62.6411 35.4555 62.5943 35.3773 63.0005 37.2836C63.2974 38.7679 63.5318 39.0336 64.7818 39.4398C65.2505 39.5961 66.2036 39.9867 66.8911 40.3148C67.688 40.7054 68.2505 40.8929 68.4536 40.8304C68.6255 40.7679 69.2974 40.3773 69.9536 39.9711C70.6099 39.5492 71.2036 39.2054 71.2817 39.2054C71.4536 39.2054 72.7505 40.4867 72.7505 40.6742C72.7505 40.7523 72.4067 41.3461 71.9849 42.0023C71.5786 42.6586 71.188 43.3304 71.1255 43.5023C71.063 43.7054 71.2505 44.2679 71.6411 45.0648C71.9692 45.7523 72.3911 46.7835 72.5786 47.3773C72.7817 47.9554 73.0473 48.4867 73.188 48.5648C73.3442 48.6429 74.1411 48.846 74.9848 49.0492L76.5005 49.3929V50.4554V51.5179L74.9848 51.8617C74.1411 52.0648 73.3442 52.2679 73.188 52.346C73.0473 52.4242 72.7817 52.9554 72.5786 53.5335C72.3911 54.1273 71.9692 55.1585 71.6255 55.8616C70.9224 57.3304 70.9224 57.2835 72.0942 59.0648L72.8755 60.2679L72.1411 60.9866C71.7349 61.3772 71.3442 61.7054 71.2817 61.7054C71.2036 61.7054 70.6099 61.3616 69.9536 60.9398C69.2974 60.5335 68.6255 60.1429 68.4536 60.0804C68.2505 60.0179 67.688 60.2054 66.8911 60.596C66.2036 60.9241 65.1724 61.346 64.6099 61.5335C63.9224 61.7522 63.5161 61.9866 63.3911 62.221C63.0474 62.8772 62.2974 66.7366 62.438 67.1116C62.6099 67.5491 63.188 67.9554 63.6411 67.9554C64.3911 67.9554 64.7661 67.3616 65.1255 65.5804C65.4067 64.1741 65.5317 63.8772 65.7974 63.7991C65.9692 63.7522 66.5786 63.5022 67.1567 63.2366L68.188 62.7679L69.6724 63.721C70.5942 64.3304 71.2974 64.6741 71.5786 64.6741C71.9536 64.6741 72.3755 64.3304 73.8755 62.8304C75.3755 61.3304 75.7192 60.9085 75.7192 60.5335C75.7192 60.2523 75.3755 59.5491 74.7817 58.6116L73.8286 57.1429L74.4223 55.7523C74.7973 54.8773 75.0942 54.3616 75.2505 54.3616C75.3755 54.3616 76.1567 54.1898 76.9536 53.9866C79.0317 53.471 79.0005 53.5179 79.0005 50.4554C79.0005 47.3929 79.0317 47.4398 76.9536 46.9242C76.1567 46.721 75.3755 46.5492 75.2505 46.5492C75.0942 46.5492 74.7973 46.0335 74.4223 45.1586L73.8286 43.7523L74.7817 42.2836C75.3598 41.3617 75.7192 40.6429 75.7192 40.3617C75.7192 40.0023 75.3755 39.5804 73.8755 38.0804C72.3755 36.5805 71.9536 36.2367 71.5942 36.2367C71.313 36.2367 70.5942 36.5961 69.6567 37.1898L68.1724 38.1429L67.1411 37.6742C66.5786 37.4086 65.9692 37.1586 65.7974 37.1117C65.5317 37.0336 65.4067 36.7367 65.1255 35.3305C64.6724 33.143 64.4849 32.9555 62.7505 32.9555H61.5161L61.4693 20.3305L61.4224 7.70554L60.8443 6.51805C60.1411 5.09618 59.2349 4.22118 57.7818 3.53368L56.7349 3.03368L41.8131 3.00243C33.1256 2.98681 26.6413 3.04931 26.2819 3.12743ZM56.4068 5.64305C57.2662 5.89305 58.563 7.18992 58.813 8.04929C59.0943 8.98679 59.0943 71.9241 58.813 72.8616C58.563 73.721 57.2662 75.0178 56.4068 75.2678C55.4849 75.5335 27.5163 75.5335 26.5944 75.2678C25.735 75.0178 24.4381 73.721 24.1881 72.8616C23.9069 71.9241 23.9069 8.98679 24.1881 8.04929C24.4225 7.25242 25.735 5.90868 26.5006 5.65868C27.3288 5.40868 55.5318 5.39305 56.4068 5.64305Z" fill="url(#paint0_linear_287_201)"/>
<path d="M36.8911 8.34614C36.6411 8.58051 36.5005 8.90864 36.5005 9.20551C36.5005 9.50238 36.6411 9.83051 36.8911 10.0649L37.2661 10.4555H41.5005H45.7348L46.1098 10.0649C46.3598 9.83051 46.5005 9.50238 46.5005 9.20551C46.5005 8.90864 46.3598 8.58051 46.1098 8.34614L45.7348 7.95551H41.5005H37.2661L36.8911 8.34614Z" fill="url(#paint1_linear_287_201)"/>
<path d="M31.8603 37.0648C29.2666 39.6585 29.001 39.971 29.001 40.4554C29.001 40.9398 29.2666 41.2523 31.8603 43.846C34.3916 46.3929 34.7666 46.7054 35.2197 46.7054C35.9072 46.7054 36.501 46.1116 36.501 45.4398C36.501 45.0023 36.2197 44.6429 34.2822 42.6898L32.0635 40.4554L34.2822 38.221C36.2197 36.2679 36.501 35.9085 36.501 35.471C36.501 34.7992 35.9072 34.2054 35.2197 34.2054C34.7666 34.2054 34.3916 34.5179 31.8603 37.0648Z" fill="url(#paint2_linear_287_201)"/>
<path d="M41.9849 34.4867C41.7036 34.7054 41.3755 35.7679 40.3286 39.9867C39.5942 42.8616 39.0005 45.3773 39.0005 45.5804C39.0005 46.0804 39.6724 46.7054 40.2192 46.7054C41.2036 46.7054 41.2661 46.5491 42.6724 40.9242C43.4067 38.0492 44.0005 35.5335 44.0005 35.3304C44.0005 34.4398 42.7036 33.8929 41.9849 34.4867Z" fill="url(#paint3_linear_287_201)"/>
<path d="M46.8911 34.596C46.6411 34.8304 46.5005 35.1429 46.5005 35.471C46.5005 35.9085 46.7817 36.2679 48.7192 38.221L50.938 40.4554L48.7192 42.6898C46.7817 44.6429 46.5005 45.0023 46.5005 45.4398C46.5005 46.1116 47.0942 46.7054 47.7817 46.7054C48.2349 46.7054 48.6099 46.3929 51.1411 43.846C53.7348 41.2523 54.0005 40.9398 54.0005 40.4554C54.0005 39.971 53.7348 39.6585 51.1411 37.0648C48.6099 34.5179 48.2349 34.2054 47.7817 34.2054C47.438 34.2054 47.1411 34.346 46.8911 34.596Z" fill="url(#paint4_linear_287_201)"/>
<path d="M66.8911 13.3462C66.1255 14.0962 66.5161 15.3462 67.5474 15.5493C67.9692 15.6274 68.1255 15.5649 68.5317 15.1743C68.8442 14.8462 69.0005 14.5493 69.0005 14.2056C69.0005 13.5649 68.3911 12.9556 67.7505 12.9556C67.4536 12.9556 67.1255 13.0962 66.8911 13.3462Z" fill="url(#paint5_linear_287_201)"/>
<path d="M66.8911 18.3461C66.1255 19.0961 66.5161 20.3461 67.5474 20.5493C67.9692 20.6274 68.1255 20.5649 68.5317 20.1743C68.8442 19.8461 69.0005 19.5493 69.0005 19.2055C69.0005 18.5649 68.3911 17.9555 67.7505 17.9555C67.4536 17.9555 67.1255 18.0961 66.8911 18.3461Z" fill="url(#paint6_linear_287_201)"/>
<path d="M66.8911 23.3461C66.1255 24.0961 66.5161 25.3461 67.5474 25.5493C67.9692 25.6274 68.1255 25.5649 68.5317 25.1743C68.8442 24.8461 69.0005 24.5493 69.0005 24.2055C69.0005 23.5649 68.3911 22.9555 67.7505 22.9555C67.4536 22.9555 67.1255 23.0961 66.8911 23.3461Z" fill="url(#paint7_linear_287_201)"/>
<path d="M14.8444 55.2991C14.0006 55.6272 13.7194 56.8616 14.36 57.4553C14.9694 58.0335 15.8913 57.8928 16.2663 57.1585C16.5944 56.5491 16.5631 56.1585 16.1569 55.7053C15.735 55.2522 15.2975 55.1116 14.8444 55.2991Z" fill="url(#paint8_linear_287_201)"/>
<path d="M14.8444 60.2992C14.0006 60.6273 13.7194 61.8616 14.36 62.4554C14.9694 63.0335 15.8913 62.8929 16.2663 62.1585C16.5944 61.5491 16.5631 61.1585 16.1569 60.7054C15.735 60.2523 15.2975 60.1117 14.8444 60.2992Z" fill="url(#paint9_linear_287_201)"/>
<path d="M14.8444 65.2991C14.0006 65.6272 13.7194 66.8616 14.36 67.4553C14.9694 68.0335 15.8913 67.8928 16.2663 67.1585C16.5944 66.5491 16.5631 66.1585 16.1569 65.7053C15.735 65.2522 15.2975 65.1116 14.8444 65.2991Z" fill="url(#paint10_linear_287_201)"/>
<path d="M83.6876 40C83.6876 75.4717 71.6121 57.3585 43.6876 80C21.5962 80 18.4045 68.3019 3.6876 40C-11.0293 11.6981 21.5962 0 43.6876 0C65.779 0 83.6876 4.5283 83.6876 40Z" fill="url(#paint11_linear_287_201)" fill-opacity="0.26"/>
<defs>
<linearGradient id="paint0_linear_287_201" x1="6.8023" y1="33.3867" x2="184.443" y2="69.5698" gradientUnits="userSpaceOnUse">
<stop stop-color="#3B3BF9"/>
<stop offset="0.51" stop-color="#10E0F9"/>
<stop offset="1" stop-color="#92FFFF"/>
</linearGradient>
<linearGradient id="paint1_linear_287_201" x1="36.8741" y1="8.97006" x2="51.7197" y2="21.0457" gradientUnits="userSpaceOnUse">
<stop stop-color="#3B3BF9"/>
<stop offset="0.51" stop-color="#10E0F9"/>
<stop offset="1" stop-color="#92FFFF"/>
</linearGradient>
<linearGradient id="paint2_linear_287_201" x1="29.2812" y1="39.2782" x2="47.5108" y2="41.5024" gradientUnits="userSpaceOnUse">
<stop stop-color="#3B3BF9"/>
<stop offset="0.51" stop-color="#10E0F9"/>
<stop offset="1" stop-color="#92FFFF"/>
</linearGradient>
<linearGradient id="paint3_linear_287_201" x1="39.1873" y1="39.2978" x2="51.4398" y2="40.2971" gradientUnits="userSpaceOnUse">
<stop stop-color="#3B3BF9"/>
<stop offset="0.51" stop-color="#10E0F9"/>
<stop offset="1" stop-color="#92FFFF"/>
</linearGradient>
<linearGradient id="paint4_linear_287_201" x1="46.7807" y1="39.2782" x2="65.0103" y2="41.5024" gradientUnits="userSpaceOnUse">
<stop stop-color="#3B3BF9"/>
<stop offset="0.51" stop-color="#10E0F9"/>
<stop offset="1" stop-color="#92FFFF"/>
</linearGradient>
<linearGradient id="paint5_linear_287_201" x1="66.5835" y1="14.0201" x2="72.551" y2="15.1816" gradientUnits="userSpaceOnUse">
<stop stop-color="#3B3BF9"/>
<stop offset="0.51" stop-color="#10E0F9"/>
<stop offset="1" stop-color="#92FFFF"/>
</linearGradient>
<linearGradient id="paint6_linear_287_201" x1="66.5835" y1="19.02" x2="72.551" y2="20.1815" gradientUnits="userSpaceOnUse">
<stop stop-color="#3B3BF9"/>
<stop offset="0.51" stop-color="#10E0F9"/>
<stop offset="1" stop-color="#92FFFF"/>
</linearGradient>
<linearGradient id="paint7_linear_287_201" x1="66.5835" y1="24.02" x2="72.551" y2="25.1815" gradientUnits="userSpaceOnUse">
<stop stop-color="#3B3BF9"/>
<stop offset="0.51" stop-color="#10E0F9"/>
<stop offset="1" stop-color="#92FFFF"/>
</linearGradient>
<linearGradient id="paint8_linear_287_201" x1="14.1019" y1="56.2712" x2="19.9973" y2="57.4173" gradientUnits="userSpaceOnUse">
<stop stop-color="#3B3BF9"/>
<stop offset="0.51" stop-color="#10E0F9"/>
<stop offset="1" stop-color="#92FFFF"/>
</linearGradient>
<linearGradient id="paint9_linear_287_201" x1="14.1019" y1="61.2713" x2="19.9973" y2="62.4174" gradientUnits="userSpaceOnUse">
<stop stop-color="#3B3BF9"/>
<stop offset="0.51" stop-color="#10E0F9"/>
<stop offset="1" stop-color="#92FFFF"/>
</linearGradient>
<linearGradient id="paint10_linear_287_201" x1="14.1019" y1="66.2712" x2="19.9973" y2="67.4173" gradientUnits="userSpaceOnUse">
<stop stop-color="#3B3BF9"/>
<stop offset="0.51" stop-color="#10E0F9"/>
<stop offset="1" stop-color="#92FFFF"/>
</linearGradient>
<linearGradient id="paint11_linear_287_201" x1="3.12683" y1="47.5344" x2="200.63" y2="5.52044" gradientUnits="userSpaceOnUse">
<stop stop-color="#3B3BF9"/>
<stop offset="0.51" stop-color="#10E0F9"/>
<stop offset="1" stop-color="#92FFFF"/>
</linearGradient>
</defs>
</svg>
