<svg width="66" height="65" viewBox="0 0 66 65" fill="none" xmlns="http://www.w3.org/2000/svg">
<g filter="url(#filter0_d_699_456)">
<circle cx="33" cy="30" r="23" fill="white"/>
</g>
<g clip-path="url(#clip0_699_456)">
<path d="M33.1599 33.3062C33.041 33.561 32.9518 33.8243 32.8924 34.0961C32.8329 34.3679 32.7777 34.6481 32.7268 34.9369H24.8921V33.3062H33.1599ZM24.8921 38.1981V36.5675H32.7013C32.7437 36.8478 32.8032 37.1238 32.8796 37.3956C32.9561 37.6673 33.0537 37.9348 33.1726 38.1981H24.8921ZM23.2615 41.4594H40.4467L42.0646 43.09H21.6309V17H35.8351L42.829 23.9939V31.2298C42.5827 31.0089 42.3237 30.8094 42.0519 30.631C41.7801 30.4527 41.4956 30.2955 41.1984 30.1597V25.1531H34.6759V18.6306H23.2615V41.4594ZM36.3065 19.7899V23.5225H40.0391L36.3065 19.7899ZM36.6122 30.045C35.6865 30.3932 34.8924 30.9367 34.23 31.6756H24.8921V30.045H36.6122ZM24.8921 23.5225H33.0452V25.1531H24.8921V23.5225ZM39.5677 26.7838V28.4144H24.8921V26.7838H39.5677ZM46.0902 42.2747C46.0902 42.4955 46.0096 42.6866 45.8482 42.848C45.6868 43.0093 45.4957 43.09 45.2749 43.09C45.0541 43.09 44.863 43.0093 44.7017 42.848L40.9945 39.1536C40.6633 39.3744 40.3066 39.54 39.9244 39.6504C39.5423 39.7608 39.1516 39.8203 38.7524 39.8288C38.1919 39.8288 37.6653 39.7226 37.1728 39.5103C36.6802 39.2979 36.247 39.0092 35.8734 38.644C35.4997 38.2788 35.2067 37.8457 34.9943 37.3446C34.782 36.8435 34.6759 36.3127 34.6759 35.7522C34.6759 35.1917 34.782 34.6651 34.9943 34.1725C35.2067 33.6799 35.4954 33.251 35.8606 32.8859C36.2258 32.5207 36.6589 32.2277 37.16 32.0068C37.6611 31.786 38.1919 31.6756 38.7524 31.6756C39.313 31.6756 39.8395 31.7818 40.3321 31.9941C40.8247 32.2064 41.2536 32.4994 41.6188 32.8731C41.9839 33.2468 42.277 33.6799 42.4978 34.1725C42.7186 34.6651 42.829 35.1917 42.829 35.7522C42.829 36.1514 42.7738 36.542 42.6634 36.9242C42.553 37.3064 42.3831 37.6631 42.1538 37.9943L45.8482 41.7014C46.0096 41.8628 46.0902 42.0539 46.0902 42.2747ZM36.3065 35.7522C36.3065 36.0919 36.3702 36.4104 36.4976 36.7076C36.625 37.0049 36.7991 37.2639 37.0199 37.4847C37.2407 37.7055 37.4997 37.8796 37.797 38.007C38.0942 38.1344 38.4127 38.1981 38.7524 38.1981C39.0921 38.1981 39.4106 38.1344 39.7079 38.007C40.0051 37.8796 40.2641 37.7055 40.485 37.4847C40.7058 37.2639 40.8799 37.0049 41.0073 36.7076C41.1347 36.4104 41.1984 36.0919 41.1984 35.7522C41.1984 35.4125 41.1347 35.094 41.0073 34.7967C40.8799 34.4995 40.7058 34.2405 40.485 34.0196C40.2641 33.7988 40.0051 33.6247 39.7079 33.4973C39.4106 33.3699 39.0921 33.3062 38.7524 33.3062C38.4127 33.3062 38.0942 33.3699 37.797 33.4973C37.4997 33.6247 37.2407 33.7988 37.0199 34.0196C36.7991 34.2405 36.625 34.4995 36.4976 34.7967C36.3702 35.094 36.3065 35.4125 36.3065 35.7522Z" fill="#020202"/>
</g>
<defs>
<filter id="filter0_d_699_456" x="0.799999" y="0.253333" width="64.4" height="64.4" filterUnits="userSpaceOnUse" color-interpolation-filters="sRGB">
<feFlood flood-opacity="0" result="BackgroundImageFix"/>
<feColorMatrix in="SourceAlpha" type="matrix" values="0 0 0 0 0 0 0 0 0 0 0 0 0 0 0 0 0 0 127 0" result="hardAlpha"/>
<feMorphology radius="3.68" operator="dilate" in="SourceAlpha" result="effect1_dropShadow_699_456"/>
<feOffset dy="2.45333"/>
<feGaussianBlur stdDeviation="2.76"/>
<feComposite in2="hardAlpha" operator="out"/>
<feColorMatrix type="matrix" values="0 0 0 0 0.568627 0 0 0 0 0.619608 0 0 0 0 0.670588 0 0 0 0.25 0"/>
<feBlend mode="normal" in2="BackgroundImageFix" result="effect1_dropShadow_699_456"/>
<feBlend mode="normal" in="SourceGraphic" in2="effect1_dropShadow_699_456" result="shape"/>
</filter>
<clipPath id="clip0_699_456">
<rect width="26.09" height="26.09" fill="white" transform="translate(20 17)"/>
</clipPath>
</defs>
</svg>
