<svg width="84" height="80" viewBox="0 0 84 80" fill="none" xmlns="http://www.w3.org/2000/svg">
<path d="M83.6871 40C83.6871 75.4717 71.6116 57.3585 43.6871 80C21.5957 80 18.404 68.3019 3.68711 40C-11.0298 11.6981 21.5957 0 43.6871 0C65.7785 0 83.6871 4.5283 83.6871 40Z" fill="url(#paint0_linear_200_121)" fill-opacity="0.26"/>
<path d="M32.4997 0.254939C31.9681 0.387824 31.2151 0.69789 30.8017 0.93413C29.7239 1.55426 19.2555 12.0669 18.7239 13.071C17.8676 14.6951 17.8823 14.5475 17.8823 26.8763V38.1863L17.4689 39.205C15.4904 44.0037 15.7414 49.5258 18.1186 54.0143L18.783 55.2694L17.8823 56.17L16.9964 57.0707L16.0219 57.0116C14.2501 56.8935 14.2206 56.9083 9.08237 62.0613C3.92938 67.2143 3.89985 67.2586 4.03273 68.9861C4.07703 69.5028 4.20991 70.1082 4.3428 70.3445C4.46092 70.5955 5.58306 71.7914 6.83809 73.0169C8.78707 74.9364 9.18572 75.2612 9.80585 75.4384C10.6622 75.6746 11.7548 75.5565 12.5226 75.1578C12.8327 75.0102 14.1025 73.8438 15.328 72.6035C17.7937 70.123 17.9266 69.8572 17.2179 69.1632C16.5239 68.4545 16.2729 68.6022 13.8367 70.9941C11.622 73.1793 11.1642 73.4894 10.4555 73.327C10.2783 73.2679 9.24478 72.3525 8.16694 71.2599C6.33608 69.4143 6.21796 69.2518 6.21796 68.7203C6.21796 68.1592 6.36561 67.9968 10.677 63.6707L15.1508 59.1969H15.8004C16.4649 59.1969 16.4944 59.2264 18.4286 61.1606C20.3333 63.0653 20.3924 63.1391 20.3924 63.7445C20.3924 64.3203 20.3038 64.468 19.4326 65.3982C18.9011 65.9592 18.4729 66.5203 18.4729 66.6384C18.4729 67.2733 19.1078 67.9082 19.7427 67.9082C19.8756 67.9082 20.4367 67.4653 20.983 66.9337C22.2971 65.6787 22.6662 64.8519 22.5776 63.464L22.5038 62.4747L23.3601 61.6183L24.2313 60.762L25.3829 61.3821C26.4165 61.9284 28.395 62.6666 30.3145 63.1982C30.9789 63.3754 31.0232 63.4344 31.3185 64.2465C31.7467 65.4277 32.9574 66.727 34.242 67.3472L35.2312 67.8344H54.9425H74.6538L75.6135 67.3767C76.7947 66.8156 77.5034 66.2102 78.094 65.2801C79.0833 63.715 79.0242 65.4868 78.9799 40.2091L78.9356 17.3381L78.4484 16.3488C77.8578 15.1528 76.5437 13.8683 75.5102 13.4844C74.6243 13.1743 74.5357 13.0857 74.2256 12.1998C73.8565 11.2106 72.5572 9.8522 71.4498 9.29113C70.9478 9.05489 70.4605 8.84818 70.3424 8.84818C70.239 8.84818 70.1505 8.75959 70.1505 8.65623C70.1505 8.19852 69.235 6.63342 68.5854 6.01329C67.8766 5.34887 66.5626 4.56632 66.1196 4.56632C66.0015 4.56632 65.78 4.21196 65.5881 3.68042C65.2189 2.66164 64.1116 1.36232 63.1223 0.78648C61.7492 -0.0255959 62.0297 -0.0108308 47.1909 0.00393417C34.7587 0.00393417 33.3708 0.0334642 32.4997 0.254939ZM61.5868 2.51399C62.3988 2.88311 62.9894 3.42942 63.4029 4.1972L63.7277 4.7878L63.772 27.1273C63.7867 42.2614 63.7572 49.6587 63.6539 50.0573C63.4324 50.8842 62.6498 51.8144 61.8082 52.2425L61.0847 52.6264L55.4297 52.6707L49.7895 52.715L50.0848 51.8587C51.6204 47.4587 51.3989 42.6453 49.4647 38.5406C47.058 33.3876 42.2151 29.6668 36.6634 28.7071C35.0245 28.4118 32.1158 28.4266 30.5655 28.7219C26.8742 29.4158 24.1279 30.8333 21.4554 33.4172L20.0971 34.7312L20.1266 25.636C20.1709 16.6589 20.1709 16.5408 20.481 16.1273C21.1749 15.1971 21.4554 15.1233 25.2648 15.0495C28.646 14.9757 28.7494 14.9609 29.5762 14.577C30.7574 14.0307 31.8205 12.9971 32.3963 11.8159L32.8688 10.8562L32.9426 7.37167C33.0017 4.4482 33.0608 3.82807 33.2675 3.42942C33.5185 2.98647 34.0943 2.48446 34.5668 2.30728C34.6849 2.26298 40.6647 2.21869 47.8553 2.21869C60.7009 2.20392 60.9371 2.21869 61.5868 2.51399ZM30.7722 6.8106C30.7426 8.46429 30.6983 10.0146 30.6541 10.2656C30.5507 10.9005 29.8272 11.8602 29.0742 12.3475L28.4688 12.7609L25.1319 12.8347C23.3011 12.879 21.7655 12.8938 21.7212 12.8643C21.6622 12.82 30.6098 3.82807 30.7279 3.82807C30.7722 3.82807 30.7869 5.17169 30.7722 6.8106ZM66.8874 7.46026C67.2122 7.7408 67.6109 8.25758 67.7733 8.61194C68.0834 9.23207 68.0834 9.32066 68.0834 31.7487V54.2506L67.729 55.0036C67.5371 55.417 67.1532 55.9338 66.8726 56.1405C65.7357 57.0116 66.0753 56.9821 56.2861 56.9821H47.2795L47.9734 55.9486L48.6674 54.915H54.6029C58.4418 54.915 60.819 54.856 61.321 54.7526C62.8861 54.413 64.2592 53.468 65.1156 52.1392C66.0606 50.6627 66.0163 51.8439 66.0163 28.3085C66.0163 14.1931 66.0606 6.92872 66.1639 6.92872C66.2377 6.92872 66.5773 7.16496 66.8874 7.46026ZM71.4941 12.0522C72.4243 13.0414 72.439 13.13 72.4833 17.6334C72.5276 21.6051 72.5424 21.7823 72.8377 22.0924C73.2806 22.5796 74.0189 22.5501 74.4175 22.0481C74.7128 21.679 74.7276 21.4723 74.7276 18.6521C74.7276 16.4226 74.7719 15.6401 74.9048 15.6401C75.2739 15.6401 76.4404 17.0575 76.6175 17.722C76.7652 18.224 76.7947 23.5246 76.7652 40.8292L76.7209 63.2868L76.2779 64.0103C75.9974 64.4532 75.5545 64.8962 75.1115 65.1767L74.388 65.6196L55.2083 65.6639L36.0285 65.6935L35.305 65.3834C34.6258 65.0881 33.5332 64.0989 33.5332 63.774C33.5332 63.6854 40.1184 63.6264 51.8123 63.5968L70.0766 63.5525L70.933 63.1982C72.5276 62.5633 73.9155 61.1163 74.4618 59.4922C74.7128 58.7834 74.8162 25.9461 74.58 25.3702C74.4175 25.0011 73.886 24.6467 73.4874 24.6467C73.3692 24.6467 73.133 24.7796 72.941 24.9273L72.5867 25.2078L72.5129 41.9513L72.439 58.6801L72.0847 59.3888C71.6417 60.3042 70.6672 61.0573 69.6632 61.264C69.1464 61.3673 64.5693 61.3969 55.474 61.3821L42.0526 61.3378L42.9238 60.762C43.3963 60.4519 44.0754 59.9646 44.415 59.6989L45.0204 59.1969H55.1935C66.2673 59.1969 66.1491 59.2116 67.5961 58.3553C68.423 57.868 69.3679 56.8049 69.8404 55.8009L70.2243 54.9888L70.2686 33.0923L70.2981 11.2106L70.7115 11.4173C70.933 11.5354 71.2874 11.8159 71.4941 12.0522ZM36.7077 30.9809C39.8084 31.6306 42.1265 32.9004 44.4593 35.2628C46.615 37.4628 47.6781 39.3232 48.4754 42.3352C48.756 43.4278 48.815 43.9741 48.8003 45.9822C48.7855 48.0345 48.7412 48.5365 48.4164 49.762C47.5009 53.1727 45.5815 56.0372 42.8795 58.0747C38.1547 61.6183 31.9829 62.1942 26.7709 59.5808C17.2622 54.7969 15.4313 42.099 23.1977 34.7903C25.2353 32.8709 27.7306 31.5715 30.4326 30.9957C32.1601 30.6266 34.9507 30.6118 36.7077 30.9809ZM21.2487 58.2962L22.4152 59.4626L21.7803 60.0975L21.1306 60.7324L19.9494 59.566L18.7682 58.3996L19.3883 57.7647C19.7279 57.4103 20.0232 57.1298 20.038 57.1298C20.0675 57.1298 20.5991 57.6613 21.2487 58.2962Z" fill="url(#paint1_linear_200_121)"/>
<path d="M26.9634 17.2938C26.6828 17.5448 26.1808 18.6817 25.103 21.5018C23.5674 25.5769 23.4936 25.9018 24.1285 26.3447C24.8372 26.832 25.6641 26.4038 26.0036 25.3997L26.1956 24.7944H27.7016H29.2077L29.3996 25.3997C29.8426 26.7138 31.1419 26.9796 31.5996 25.8575C31.762 25.4588 31.6586 25.0897 30.3446 21.6051C28.8385 17.5891 28.4989 16.9689 27.7016 16.9689C27.5097 16.9689 27.1701 17.1166 26.9634 17.2938ZM28.1593 22.1957C28.2479 22.5501 28.2184 22.5796 27.7164 22.5796C27.111 22.5796 27.0963 22.5796 27.4359 21.6051L27.6869 20.8817L27.864 21.3394C27.9674 21.5904 28.1003 21.9743 28.1593 22.1957Z" fill="url(#paint2_linear_200_121)"/>
<path d="M33.0166 17.3381C32.6475 17.6925 32.6475 17.7072 32.6475 20.734C32.6475 24.1005 32.7213 24.4696 33.5777 25.3555C35.3347 27.2011 38.4501 26.8025 39.6313 24.6025C39.9266 24.0414 39.9561 23.7166 40.0004 21.177C40.0595 18.0763 39.9561 17.4119 39.3655 17.1461C38.834 16.8951 38.6568 16.9247 38.1991 17.279L37.8152 17.5743V20.3649C37.8152 21.9005 37.7562 23.3179 37.6676 23.5246C37.5052 23.9676 36.826 24.3515 36.2058 24.3515C35.9548 24.3515 35.5857 24.1891 35.3199 23.9676L34.8622 23.5837V20.6455C34.8622 17.7072 34.8622 17.6925 34.4931 17.3381C34.3011 17.1314 33.9615 16.969 33.7548 16.969C33.5481 16.969 33.2085 17.1314 33.0166 17.3381Z" fill="url(#paint3_linear_200_121)"/>
<path d="M41.9193 17.2642L41.5059 17.5743V21.7676V25.9608L41.9193 26.2709C42.2884 26.5662 42.4508 26.5957 44.0159 26.5367C45.4038 26.4924 45.832 26.4185 46.3193 26.1675C47.1609 25.7246 48.0763 24.632 48.4011 23.7165C48.7112 22.8159 48.7407 20.8964 48.4749 19.9662C48.1796 18.9622 47.4266 18.0025 46.526 17.5005C45.7729 17.0723 45.5958 17.0428 44.0159 16.9985C42.4508 16.9394 42.2884 16.9689 41.9193 17.2642ZM45.8025 19.7447C46.7474 20.8078 46.7474 22.7273 45.8025 23.7904C45.4629 24.1743 45.2562 24.2628 44.5622 24.3219L43.7206 24.381V21.7676V19.1541L44.5622 19.2132C45.2562 19.2723 45.4629 19.3609 45.8025 19.7447Z" fill="url(#paint4_linear_200_121)"/>
<path d="M50.4542 17.279L50.0703 17.5743V21.7676C50.0703 25.887 50.0703 25.9756 50.3951 26.2709C51.0596 26.8763 52.0341 26.4628 52.2112 25.4884C52.2703 25.2226 52.2851 23.3622 52.2555 21.3541L52.2112 17.6777L51.7978 17.3233C51.2958 16.8951 50.971 16.8804 50.4542 17.279Z" fill="url(#paint5_linear_200_121)"/>
<path d="M54.2783 17.338C53.8353 17.781 53.8058 18.283 54.2192 18.7998C54.4702 19.1246 54.6326 19.1837 55.2528 19.1837H55.9763V22.5649V25.9608L56.3602 26.2561C56.995 26.7581 57.6299 26.64 57.9695 25.9608C58.1467 25.636 58.191 24.8682 58.191 22.3582V19.1837H58.8554C59.6823 19.1837 60.1105 18.8145 60.1105 18.0911C60.1105 17.7219 60.0071 17.5005 59.7266 17.279C59.3722 16.9985 59.136 16.9689 56.9803 16.9689C54.6917 16.9689 54.6326 16.9837 54.2783 17.338Z" fill="url(#paint6_linear_200_121)"/>
<path d="M31.688 33.3728C29.2223 33.7272 26.786 34.9379 24.9109 36.7393C22.2532 39.2936 20.9834 42.2614 20.9834 45.9231C20.9834 50.8989 23.6854 55.2103 28.1297 57.3512C30.1968 58.3405 31.0236 58.5324 33.6075 58.5324C36.2209 58.5324 37.3578 58.2666 39.4397 57.2036C42.4074 55.668 44.5779 53.1284 45.6262 49.9539C48.6235 40.962 41.0933 32.0144 31.688 33.3728ZM36.5605 35.8681C38.3618 36.4292 39.543 37.1527 40.9162 38.5258C42.8356 40.4453 43.692 42.1728 44.0168 44.7419C44.5484 49.0385 42.2303 53.3204 38.3323 55.2841C34.7001 57.115 30.2558 56.6573 27.1256 54.1324C25.2653 52.6412 23.9216 50.5445 23.4049 48.315C23.0357 46.7647 23.1834 44.1218 23.7002 42.5862C24.9257 39.0278 27.8787 36.4292 31.6142 35.6319C32.9431 35.3513 35.2316 35.4695 36.5605 35.8681Z" fill="url(#paint7_linear_200_121)"/>
<path d="M36.6493 39.0278C35.6748 39.3822 35.0842 40.0614 33.7554 42.4238C32.0131 45.5097 32.2346 45.3177 31.5849 44.4614C30.6252 43.162 28.7943 42.5862 27.4359 43.1473C25.7675 43.856 24.8668 45.864 25.4722 47.5472C25.6346 48.0197 29.1339 52.7002 30.1232 53.7781C31.142 54.9002 33.0023 55.1955 34.2869 54.4425C34.6413 54.2358 35.0547 53.9405 35.1876 53.7928C35.5124 53.409 40.8426 43.9593 41.0493 43.3835C41.2708 42.7338 41.256 41.5674 41.0197 40.9916C40.311 39.3379 38.303 38.4225 36.6493 39.0278ZM38.6278 41.405C39.307 42.0694 39.2037 42.35 36.2654 47.5325C34.0507 51.4452 33.4748 52.3606 33.1057 52.5378C32.397 52.8774 31.9393 52.5673 30.6252 50.8841C27.7312 47.1338 27.4802 46.7795 27.4802 46.3365C27.4802 45.7164 28.0561 45.1701 28.7057 45.1701C29.2668 45.1701 29.5916 45.4654 30.9205 47.1929C31.3339 47.7244 31.7916 48.1674 31.9983 48.2117C32.8547 48.4331 32.9876 48.2855 34.8923 44.9043C35.8815 43.1473 36.856 41.5526 37.0332 41.3607C37.4761 40.9178 38.1701 40.9325 38.6278 41.405Z" fill="url(#paint8_linear_200_121)"/>
<defs>
<linearGradient id="paint0_linear_200_121" x1="3.12634" y1="47.5344" x2="200.629" y2="5.52044" gradientUnits="userSpaceOnUse">
<stop stop-color="#3B3BF9"/>
<stop offset="0.51" stop-color="#10E0F9"/>
<stop offset="1" stop-color="#92FFFF"/>
</linearGradient>
<linearGradient id="paint1_linear_200_121" x1="6.80181" y1="30.6635" x2="184.57" y2="66.5456" gradientUnits="userSpaceOnUse">
<stop stop-color="#3B3BF9"/>
<stop offset="0.51" stop-color="#10E0F9"/>
<stop offset="1" stop-color="#92FFFF"/>
</linearGradient>
<linearGradient id="paint2_linear_200_121" x1="24.0482" y1="20.8621" x2="43.0163" y2="24.0405" gradientUnits="userSpaceOnUse">
<stop stop-color="#3B3BF9"/>
<stop offset="0.51" stop-color="#10E0F9"/>
<stop offset="1" stop-color="#92FFFF"/>
</linearGradient>
<linearGradient id="paint3_linear_200_121" x1="32.9227" y1="20.8477" x2="50.6611" y2="23.6283" gradientUnits="userSpaceOnUse">
<stop stop-color="#3B3BF9"/>
<stop offset="0.51" stop-color="#10E0F9"/>
<stop offset="1" stop-color="#92FFFF"/>
</linearGradient>
<linearGradient id="paint4_linear_200_121" x1="41.773" y1="20.8645" x2="59.0139" y2="23.4789" gradientUnits="userSpaceOnUse">
<stop stop-color="#3B3BF9"/>
<stop offset="0.51" stop-color="#10E0F9"/>
<stop offset="1" stop-color="#92FFFF"/>
</linearGradient>
<linearGradient id="paint5_linear_200_121" x1="50.1525" y1="20.8717" x2="55.5676" y2="21.125" gradientUnits="userSpaceOnUse">
<stop stop-color="#3B3BF9"/>
<stop offset="0.51" stop-color="#10E0F9"/>
<stop offset="1" stop-color="#92FFFF"/>
</linearGradient>
<linearGradient id="paint6_linear_200_121" x1="54.1578" y1="20.8632" x2="69.1543" y2="22.8283" gradientUnits="userSpaceOnUse">
<stop stop-color="#3B3BF9"/>
<stop offset="0.51" stop-color="#10E0F9"/>
<stop offset="1" stop-color="#92FFFF"/>
</linearGradient>
<linearGradient id="paint7_linear_200_121" x1="21.9289" y1="43.5015" x2="81.8828" y2="55.6997" gradientUnits="userSpaceOnUse">
<stop stop-color="#3B3BF9"/>
<stop offset="0.51" stop-color="#10E0F9"/>
<stop offset="1" stop-color="#92FFFF"/>
</linearGradient>
<linearGradient id="paint8_linear_200_121" x1="25.8781" y1="45.3411" x2="63.616" y2="52.9696" gradientUnits="userSpaceOnUse">
<stop stop-color="#3B3BF9"/>
<stop offset="0.51" stop-color="#10E0F9"/>
<stop offset="1" stop-color="#92FFFF"/>
</linearGradient>
</defs>
</svg>
