<svg width="66" height="65" viewBox="0 0 66 65" fill="none" xmlns="http://www.w3.org/2000/svg">
<g filter="url(#filter0_d_699_453)">
<circle cx="33" cy="30" r="23" fill="white"/>
</g>
<path d="M26.0962 23.241H37.6915V24.4005H26.0962V23.241ZM26.0962 29.0386H31.9562V30.1982H26.0962V29.0386ZM37.2408 26.1398H26.0962V27.2993H36.082L37.2408 26.1398ZM29.5697 38.3671C29.7646 38.5906 30.0121 38.7622 30.2897 38.8665C30.5674 38.9707 30.8666 39.0043 31.1605 38.9643H36.8154C36.9499 38.9643 37.0789 38.9108 37.1741 38.8157C37.2692 38.7205 37.3227 38.5915 37.3227 38.457C37.3227 38.3224 37.2692 38.1934 37.1741 38.0983C37.0789 38.0031 36.9499 37.9497 36.8154 37.9497H31.1605C30.5002 37.9381 30.6176 37.3648 30.7104 37.1873C30.8314 36.9789 30.9256 36.7561 30.9909 36.5242C31.0342 36.3376 31.0138 36.1418 30.9329 35.9682C30.852 35.7945 30.7152 35.653 30.5445 35.5661C30.2701 35.4425 29.9628 35.4122 29.6696 35.4799C29.3765 35.5476 29.1135 35.7095 28.9211 35.9408C28.6718 36.1981 28.3254 36.5916 27.9935 36.9742C28.1986 36.1705 28.4645 35.1393 28.7254 34.1334C28.8002 33.9042 28.7853 33.6551 28.6838 33.4365C28.5822 33.2178 28.4016 33.0458 28.1783 32.955C27.9309 32.8701 27.6606 32.8822 27.4219 32.9889C27.1831 33.0956 26.9937 33.2888 26.8919 33.5297C26.5788 34.1319 24.1003 38.2852 24.0757 38.3273C24.0415 38.3844 24.019 38.4478 24.0093 38.5137C23.9996 38.5797 24.003 38.6468 24.0193 38.7114C24.0356 38.776 24.0644 38.8368 24.1042 38.8903C24.144 38.9437 24.1939 38.9888 24.2511 39.023C24.3666 39.092 24.5048 39.1123 24.6353 39.0794C24.7657 39.0465 24.8778 38.9631 24.9468 38.8476C25.0396 38.6918 27.018 35.3777 27.642 34.271C27.1724 36.0828 26.6549 38.099 26.6245 38.2801C26.5902 38.4133 26.6005 38.5541 26.6538 38.6809C26.707 38.8077 26.8004 38.9136 26.9195 38.9824C27.0521 39.0482 27.2029 39.0679 27.348 39.0385C27.4932 39.0091 27.6244 38.9323 27.721 38.8201C27.8123 38.7374 27.9833 38.541 28.4145 38.0403C28.8163 37.5678 29.2278 37.1036 29.6487 36.6481C29.8067 36.4814 29.9024 36.5553 29.8096 36.7191C29.6281 36.9484 29.5105 37.2216 29.4685 37.511C29.4265 37.8003 29.4609 38.0957 29.5697 38.3671Z" fill="#020202"/>
<path d="M40.5905 33.021V40.4891H23.1975V20.1972H40.5905V23.8157L41.5544 22.8518C41.7027 22.7055 41.8654 22.5744 42.0399 22.4605V19.4725C42.0399 19.2803 41.9636 19.096 41.8277 18.9601C41.6917 18.8242 41.5074 18.7478 41.3152 18.7478H22.4728C22.2806 18.7478 22.0962 18.8242 21.9603 18.9601C21.8244 19.096 21.748 19.2803 21.748 19.4725V41.2138C21.748 41.406 21.8244 41.5903 21.9603 41.7263C22.0962 41.8622 22.2806 41.9385 22.4728 41.9385H41.3152C41.5074 41.9385 41.6917 41.8622 41.8277 41.7263C41.9636 41.5903 42.0399 41.406 42.0399 41.2138V32.8267C41.5954 33.0623 41.0813 33.1312 40.5905 33.021Z" fill="#020202"/>
<path d="M45.0321 25.8941L44.6531 25.5151C44.8468 25.2591 44.9449 24.9434 44.9303 24.6227C44.9158 24.302 44.7895 23.9965 44.5734 23.7591C44.2928 23.5119 43.926 23.3855 43.5527 23.4075C43.1794 23.4295 42.83 23.5981 42.5804 23.8765L33.5034 32.9521L32.8968 35.2291C32.8872 35.2589 32.8861 35.2908 32.8935 35.3212C32.9009 35.3516 32.9165 35.3794 32.9387 35.4014C32.961 35.4235 32.9888 35.439 33.0193 35.4462C33.0498 35.4534 33.0816 35.452 33.1114 35.4422L35.3804 34.8283L43.8537 26.355L44.2117 26.7138C44.2367 26.7387 44.2566 26.7684 44.2701 26.801C44.2836 26.8337 44.2906 26.8687 44.2906 26.904C44.2906 26.9393 44.2836 26.9743 44.2701 27.007C44.2566 27.0396 44.2367 27.0693 44.2117 27.0942L40.6483 30.6576C40.5396 30.7664 40.4786 30.9139 40.4787 31.0677C40.4788 31.2215 40.5399 31.369 40.6487 31.4777C40.7575 31.5863 40.905 31.6474 41.0588 31.6473C41.2126 31.6472 41.36 31.5861 41.4687 31.4773L45.0321 27.9139C45.2999 27.6459 45.4504 27.2825 45.4504 26.9036C45.4504 26.5248 45.2999 26.1614 45.0321 25.8934V25.8941Z" fill="#020202"/>
<defs>
<filter id="filter0_d_699_453" x="0.799999" y="0.253333" width="64.4" height="64.4" filterUnits="userSpaceOnUse" color-interpolation-filters="sRGB">
<feFlood flood-opacity="0" result="BackgroundImageFix"/>
<feColorMatrix in="SourceAlpha" type="matrix" values="0 0 0 0 0 0 0 0 0 0 0 0 0 0 0 0 0 0 127 0" result="hardAlpha"/>
<feMorphology radius="3.68" operator="dilate" in="SourceAlpha" result="effect1_dropShadow_699_453"/>
<feOffset dy="2.45333"/>
<feGaussianBlur stdDeviation="2.76"/>
<feComposite in2="hardAlpha" operator="out"/>
<feColorMatrix type="matrix" values="0 0 0 0 0.568627 0 0 0 0 0.619608 0 0 0 0 0.670588 0 0 0 0.25 0"/>
<feBlend mode="normal" in2="BackgroundImageFix" result="effect1_dropShadow_699_453"/>
<feBlend mode="normal" in="SourceGraphic" in2="effect1_dropShadow_699_453" result="shape"/>
</filter>
</defs>
</svg>
