<svg width="88" height="85" viewBox="0 0 88 85" fill="none" xmlns="http://www.w3.org/2000/svg">
<path d="M20.5999 14.5334L12.9995 22.1185V48.8265C12.9995 74.4662 13.0148 75.5651 13.2895 76.145C13.61 76.847 14.1136 77.3507 14.7241 77.5796C15.0141 77.7017 20.6304 77.7475 32.6414 77.7475H50.1161L51.5354 79.1058C54.4657 81.8987 58.2506 83.8522 62.4475 84.7221C64.401 85.1189 68.5828 85.0884 70.6126 84.6458C72.8103 84.1727 73.8786 83.8064 75.9847 82.7839C82.0589 79.8231 86.5 73.9473 87.7362 67.2169C88.0873 65.2939 88.0873 61.57 87.7362 59.6471C86.3169 51.8483 80.7158 45.3773 73.2376 42.8744C71.7267 42.3708 69.4222 41.8824 68.5522 41.8824C67.5602 41.8824 67.6365 43.3323 67.6365 25.3997C67.6365 14.2434 67.5908 8.94757 67.4687 8.6576C67.255 8.07765 66.5987 7.39087 66.0035 7.14668C65.5915 6.96355 62.356 6.93302 46.85 6.93302H28.1849L20.5999 14.5334ZM65.1947 25.5371V41.6993L64.401 41.8061C59.09 42.4623 55.1066 44.2785 51.5659 47.6666C48.3152 50.7953 46.2701 54.3665 45.2476 58.7008C44.866 60.2575 44.8355 60.7154 44.8202 63.4015C44.8202 65.7518 44.8813 66.6522 45.1102 67.6747C45.6291 70.0708 46.6669 72.6959 47.8726 74.6494L48.2694 75.3056H31.863H15.4414V49.5896V23.8736H21.5156C27.8644 23.8583 28.3223 23.8125 29.0549 23.1562C29.2227 23.0036 29.4975 22.6068 29.6501 22.2711C29.9095 21.7064 29.94 21.157 29.94 15.5101V9.3749H47.5673H65.1947V25.5371ZM27.4219 21.2333C27.3761 21.3859 26.2162 21.4317 22.2786 21.4317H17.1965L22.3092 16.319L27.4219 11.2063L27.4676 16.1206C27.4829 18.8372 27.4676 21.1264 27.4219 21.2333ZM70.0937 44.5532C77.0072 45.9878 82.593 50.9937 84.6992 57.602C85.3554 59.6776 85.5538 61.0664 85.5538 63.4015C85.5538 66.6675 84.9281 69.2925 83.463 72.1617C78.8387 81.1966 68.0486 85.0426 58.6932 80.983C53.2447 78.6174 49.0325 73.5505 47.72 67.7511C46.2548 61.2343 48.1778 54.5802 52.8937 49.8796C56.1139 46.6746 59.7767 44.889 64.279 44.3243C65.7746 44.1411 68.6743 44.2632 70.0937 44.5532Z" fill="url(#paint0_linear_287_185)"/>
<path d="M24.5833 26.6054C24.0797 27.0175 24.0797 28.0553 24.5833 28.4674C24.9191 28.7421 25.499 28.7573 42.4853 28.7573H60.021L60.3873 28.3758C60.6315 28.1469 60.7689 27.8264 60.7689 27.5364C60.7689 27.2464 60.6315 26.9259 60.3873 26.697L60.021 26.3154H42.4853C25.499 26.3154 24.9191 26.3307 24.5833 26.6054Z" fill="url(#paint1_linear_287_185)"/>
<path d="M24.4612 34.1905C24.0339 34.7246 24.0644 35.213 24.507 35.7319L24.8732 36.1592H42.4548H60.0363L60.4026 35.7319C60.8452 35.213 60.8757 34.7246 60.4484 34.1905L60.1431 33.7937H42.4548H24.7664L24.4612 34.1905Z" fill="url(#paint2_linear_287_185)"/>
<path d="M24.5833 41.4093C24.0797 41.8214 24.0797 42.8592 24.5833 43.2712C24.9191 43.546 25.3616 43.5612 35.587 43.5612C45.8124 43.5612 46.255 43.546 46.5907 43.2712C46.8654 43.0576 46.957 42.8287 46.957 42.3403C46.957 41.8519 46.8654 41.623 46.5907 41.4093C46.255 41.1346 45.8124 41.1193 35.587 41.1193C25.3616 41.1193 24.9191 41.1346 24.5833 41.4093Z" fill="url(#paint3_linear_287_185)"/>
<path d="M24.4612 48.9944C24.0339 49.5285 24.0644 50.0169 24.507 50.5358L24.8732 50.9631H33.2062H41.5238L41.8748 50.6274C42.3022 50.2 42.3174 49.3454 41.9206 48.9028C41.6459 48.5976 41.5238 48.5976 33.2062 48.5976H24.7664L24.4612 48.9944Z" fill="url(#paint4_linear_287_185)"/>
<path d="M24.5833 56.2132C24.0797 56.6253 24.0797 57.6631 24.5833 58.0751C24.9191 58.3499 25.3159 58.3651 33.1757 58.3651C38.151 58.3651 41.5086 58.3041 41.6764 58.2125C42.1496 57.9683 42.3785 57.2205 42.1496 56.6863C42.0427 56.4269 41.8291 56.1522 41.6764 56.0759C41.5086 55.9843 38.151 55.9232 33.1757 55.9232C25.3159 55.9232 24.9191 55.9385 24.5833 56.2132Z" fill="url(#paint5_linear_287_185)"/>
<path d="M65.5606 45.6521C65.4232 45.8047 63.3629 49.3302 60.9668 53.4814C58.586 57.6326 56.5257 61.1885 56.4036 61.3717C56.1441 61.7837 56.1288 62.4705 56.3883 62.8063C56.6935 63.1878 66.0032 68.4379 66.3847 68.4379C66.8426 68.4379 76.1065 63.1726 76.4117 62.7452C76.5338 62.5621 76.6406 62.3026 76.6406 62.15C76.6406 61.8753 67.6667 46.171 67.2089 45.6521C67.0715 45.4995 66.7663 45.3926 66.3847 45.3926C66.0337 45.3926 65.7132 45.4995 65.5606 45.6521ZM65.1638 55.8469L65.118 57.4647L62.844 58.4567C61.5925 58.9908 60.5395 59.4029 60.509 59.3724C60.4632 59.3419 61.4857 57.4799 62.783 55.2517L65.118 51.2074L65.1638 52.7183C65.1791 53.5424 65.1791 54.9618 65.1638 55.8469ZM70.0933 55.4043C71.3295 57.5715 72.3368 59.3724 72.3063 59.3877C72.2758 59.4182 71.238 59.0061 69.9865 58.472L67.7125 57.4952L67.6667 54.3971C67.6515 52.6878 67.6667 51.3295 67.7278 51.3752C67.7736 51.4363 68.8419 53.2524 70.0933 55.4043ZM65.1943 62.6537C65.1943 63.9967 65.1333 65.0803 65.0722 65.0498C64.4923 64.8056 60.1427 62.2569 60.2495 62.2263C60.3258 62.1958 61.3789 61.738 62.5998 61.2038C63.8208 60.6696 64.9043 60.2118 65.0112 60.2118C65.1485 60.1965 65.1943 60.7765 65.1943 62.6537ZM70.2154 61.1885C71.4974 61.7227 72.581 62.1806 72.6115 62.2111C72.642 62.2569 70.6733 63.4168 68.2925 64.7445L67.6362 65.1108V62.6537C67.6362 61.2954 67.682 60.1965 67.7583 60.1965C67.8193 60.1965 68.9334 60.6391 70.2154 61.1885Z" fill="url(#paint6_linear_287_185)"/>
<path d="M56.8772 66.0264C56.7093 66.118 56.4804 66.3012 56.3888 66.4233C55.8852 67.049 56.0836 67.4 60.6927 74.1152C63.1803 77.7322 65.2712 80.7998 65.3475 80.9524C65.4238 81.105 65.7138 81.3034 65.9732 81.395C66.5837 81.6087 67.1178 81.3798 67.5604 80.7235C67.7283 80.4641 69.5903 77.7475 71.6964 74.6951C73.8025 71.6275 75.7713 68.7583 76.0765 68.3004C76.7175 67.3847 76.7785 66.8201 76.3359 66.3317C75.6492 65.5991 75.5576 65.6296 70.8417 68.331L66.4311 70.8644L62.0357 68.3615C59.6243 66.9727 57.5335 65.8433 57.4114 65.8433C57.2893 65.8433 57.0451 65.9349 56.8772 66.0264ZM63.7908 72.1769C64.4928 72.5737 65.1033 72.9858 65.1338 73.0926C65.1796 73.1842 65.1796 73.932 65.1643 74.7562L65.1186 76.2518L63.3635 73.6878C62.402 72.2838 61.5778 71.0628 61.5473 70.9865C61.5168 70.8949 61.7152 70.9712 62.0052 71.1391C62.2951 71.307 63.104 71.7801 63.7908 72.1769ZM71.208 71.0628C71.0859 71.2612 67.7894 76.0992 67.6825 76.2213C67.652 76.2518 67.652 75.5345 67.6673 74.6188L67.7131 72.9553L69.4682 71.9327C71.4674 70.7576 71.3454 70.8186 71.208 71.0628Z" fill="url(#paint7_linear_287_185)"/>
<path d="M83.6866 40C83.6866 75.4717 71.6111 57.3585 43.6866 80C21.5952 80 18.4035 68.3019 3.68662 40C-11.0303 11.6981 21.5952 0 43.6866 0C65.778 0 83.6866 4.5283 83.6866 40Z" fill="url(#paint8_linear_287_185)" fill-opacity="0.26"/>
<defs>
<linearGradient id="paint0_linear_287_185" x1="15.8013" y1="38.6142" x2="194.011" y2="73.4299" gradientUnits="userSpaceOnUse">
<stop stop-color="#3B3BF9"/>
<stop offset="0.51" stop-color="#10E0F9"/>
<stop offset="1" stop-color="#92FFFF"/>
</linearGradient>
<linearGradient id="paint1_linear_287_185" x1="25.5715" y1="27.3064" x2="34.3526" y2="54.0442" gradientUnits="userSpaceOnUse">
<stop stop-color="#3B3BF9"/>
<stop offset="0.51" stop-color="#10E0F9"/>
<stop offset="1" stop-color="#92FFFF"/>
</linearGradient>
<linearGradient id="paint2_linear_287_185" x1="25.5243" y1="34.7537" x2="33.809" y2="60.8161" gradientUnits="userSpaceOnUse">
<stop stop-color="#3B3BF9"/>
<stop offset="0.51" stop-color="#10E0F9"/>
<stop offset="1" stop-color="#92FFFF"/>
</linearGradient>
<linearGradient id="paint3_linear_287_185" x1="25.0555" y1="42.1103" x2="37.2834" y2="65.2782" gradientUnits="userSpaceOnUse">
<stop stop-color="#3B3BF9"/>
<stop offset="0.51" stop-color="#10E0F9"/>
<stop offset="1" stop-color="#92FFFF"/>
</linearGradient>
<linearGradient id="paint4_linear_287_185" x1="24.8315" y1="49.5576" x2="37.8982" y2="69.8324" gradientUnits="userSpaceOnUse">
<stop stop-color="#3B3BF9"/>
<stop offset="0.51" stop-color="#10E0F9"/>
<stop offset="1" stop-color="#92FFFF"/>
</linearGradient>
<linearGradient id="paint5_linear_287_185" x1="24.8793" y1="56.9142" x2="38.5445" y2="77.4365" gradientUnits="userSpaceOnUse">
<stop stop-color="#3B3BF9"/>
<stop offset="0.51" stop-color="#10E0F9"/>
<stop offset="1" stop-color="#92FFFF"/>
</linearGradient>
<linearGradient id="paint6_linear_287_185" x1="56.9647" y1="54.7449" x2="105.797" y2="63.5521" gradientUnits="userSpaceOnUse">
<stop stop-color="#3B3BF9"/>
<stop offset="0.51" stop-color="#10E0F9"/>
<stop offset="1" stop-color="#92FFFF"/>
</linearGradient>
<linearGradient id="paint7_linear_287_185" x1="56.9607" y1="72.186" x2="104.019" y2="84.691" gradientUnits="userSpaceOnUse">
<stop stop-color="#3B3BF9"/>
<stop offset="0.51" stop-color="#10E0F9"/>
<stop offset="1" stop-color="#92FFFF"/>
</linearGradient>
<linearGradient id="paint8_linear_287_185" x1="3.12585" y1="47.5344" x2="200.629" y2="5.52044" gradientUnits="userSpaceOnUse">
<stop stop-color="#3B3BF9"/>
<stop offset="0.51" stop-color="#10E0F9"/>
<stop offset="1" stop-color="#92FFFF"/>
</linearGradient>
</defs>
</svg>
