<svg width="66" height="65" viewBox="0 0 66 65" fill="none" xmlns="http://www.w3.org/2000/svg">
<g filter="url(#filter0_d_699_463)">
<circle cx="33" cy="30" r="23" fill="white"/>
</g>
<path d="M29.7828 30.0451C30.3595 30.0451 30.9125 29.816 31.3202 29.4083C31.7279 29.0005 31.957 28.4475 31.957 27.8709C31.957 27.2943 31.7279 26.7413 31.3202 26.3335C30.9125 25.9258 30.3595 25.6967 29.7828 25.6967C29.2062 25.6967 28.6532 25.9258 28.2455 26.3335C27.8377 26.7413 27.6087 27.2943 27.6087 27.8709C27.6087 28.4475 27.8377 29.0005 28.2455 29.4083C28.6532 29.816 29.2062 30.0451 29.7828 30.0451ZM43.3714 24.0661L33.0441 18.0872L22.7168 24.0661V36.024L33.0441 42.003L43.3714 36.024V24.0661ZM33.0441 20.5994L41.1972 25.3195V32.7987L36.2379 29.8244L27.5728 36.323L24.891 34.7706V25.3195L33.0441 20.5994ZM33.0441 39.4907L29.6176 37.5068L36.3727 32.441L40.7189 35.0478L33.0441 39.4907Z" fill="black"/>
<defs>
<filter id="filter0_d_699_463" x="0.799999" y="0.253333" width="64.4" height="64.4" filterUnits="userSpaceOnUse" color-interpolation-filters="sRGB">
<feFlood flood-opacity="0" result="BackgroundImageFix"/>
<feColorMatrix in="SourceAlpha" type="matrix" values="0 0 0 0 0 0 0 0 0 0 0 0 0 0 0 0 0 0 127 0" result="hardAlpha"/>
<feMorphology radius="3.68" operator="dilate" in="SourceAlpha" result="effect1_dropShadow_699_463"/>
<feOffset dy="2.45333"/>
<feGaussianBlur stdDeviation="2.76"/>
<feComposite in2="hardAlpha" operator="out"/>
<feColorMatrix type="matrix" values="0 0 0 0 0.568627 0 0 0 0 0.619608 0 0 0 0 0.670588 0 0 0 0.25 0"/>
<feBlend mode="normal" in2="BackgroundImageFix" result="effect1_dropShadow_699_463"/>
<feBlend mode="normal" in="SourceGraphic" in2="effect1_dropShadow_699_463" result="shape"/>
</filter>
</defs>
</svg>
