<svg width="61" height="58" viewBox="0 0 61 58" fill="none" xmlns="http://www.w3.org/2000/svg">
<path d="M60.6732 29C60.6732 54.717 51.9184 41.5849 31.6732 58C15.6569 58 13.3429 49.5189 2.67315 29C-7.99661 8.48113 15.6569 0 31.6732 0C47.6894 0 60.6732 3.28302 60.6732 29Z" fill="url(#paint0_linear_177_169)" fill-opacity="0.26"/>
<path d="M27.9955 3.28735C26.7954 4.48743 26.1582 5.19897 26.1582 5.33704C26.1582 5.71936 26.5618 6.12292 26.9229 6.12292C27.1884 6.12292 27.4326 5.94238 28.2928 5.09277L29.3442 4.06262V6.94067C29.3442 9.57446 29.3655 9.83997 29.5354 10.063C29.6735 10.2223 29.854 10.2966 30.0876 10.2966C30.3213 10.2966 30.5018 10.2223 30.6399 10.063C30.8098 9.83997 30.8311 9.57446 30.8311 6.94067V4.06262L31.8824 5.09277C32.7427 5.94238 32.9869 6.12292 33.2524 6.12292C33.6135 6.12292 34.0171 5.71936 34.0171 5.33704C34.0171 5.00781 30.4275 1.45007 30.0876 1.45007C29.8965 1.45007 29.3655 1.91736 27.9955 3.28735Z" fill="url(#paint1_linear_177_169)"/>
<path d="M10.887 9.4469C10.6639 9.69116 10.6533 9.77612 10.6533 12.1869C10.6533 14.6614 10.6533 14.6932 10.8976 14.9163C11.2056 15.203 11.6516 15.2136 11.9277 14.9375C12.1189 14.7463 12.1401 14.587 12.1401 13.2701V11.8152L14.1898 13.8542C15.9952 15.649 16.282 15.8933 16.5793 15.8933C17.0148 15.8933 17.344 15.5641 17.344 15.1287C17.344 14.8313 17.0997 14.5446 15.3049 12.7391L13.2659 10.6895H14.7208C16.0377 10.6895 16.197 10.6682 16.3882 10.4771C16.6749 10.1903 16.6643 9.69116 16.3669 9.41504C16.1439 9.21326 16.0059 9.20264 13.627 9.20264C11.1418 9.20264 11.11 9.20264 10.887 9.4469Z" fill="url(#paint2_linear_177_169)"/>
<path d="M43.8091 9.41504C43.5117 9.69116 43.5011 10.1903 43.7878 10.4771C43.979 10.6682 44.1383 10.6895 45.4552 10.6895H46.9102L44.8711 12.7391C43.0763 14.5446 42.832 14.8313 42.832 15.1287C42.832 15.3304 42.917 15.5535 43.0444 15.6809C43.1719 15.8083 43.3949 15.8933 43.5967 15.8933C43.894 15.8933 44.1808 15.649 45.9862 13.8542L48.0359 11.8152V13.2701C48.0359 14.587 48.0571 14.7463 48.2483 14.9375C48.535 15.2242 49.0023 15.2136 49.2891 14.9056C49.5121 14.6614 49.5227 14.5764 49.5227 12.1656C49.5227 9.69116 49.5227 9.6593 49.2784 9.43628C49.0342 9.21326 48.9492 9.20264 46.5385 9.20264C44.1702 9.20264 44.0321 9.21326 43.8091 9.41504Z" fill="url(#paint3_linear_177_169)"/>
<path d="M28.5697 12.187C22.1233 12.7499 16.5265 17.1678 14.4449 23.3275C12.8731 27.9579 13.4148 32.9493 15.9423 37.1867C16.5689 38.2381 17.5141 39.4276 18.523 40.4153C23.5676 45.4067 31.3415 46.5962 37.6286 43.3358C40.6978 41.7428 43.1936 39.2471 44.7866 36.1778C47.2186 31.4837 47.2186 25.7914 44.7866 21.0973C42.79 17.2528 39.434 14.3641 35.3984 12.9941C34.0178 12.5268 33.0089 12.3144 31.4583 12.1764C30.1308 12.0596 29.9397 12.0596 28.5697 12.187ZM32.4248 13.8119C36.9808 14.5659 40.8465 17.2528 43.1405 21.2566C44.4255 23.4974 45.0627 25.9294 45.0627 28.6376C45.0627 32.5776 43.6396 36.1354 40.9527 38.9391L40.0713 39.8418L40.0819 37.0805C40.0819 34.0007 40.0394 33.7246 39.3809 32.6201C39.1792 32.2696 38.765 31.7599 38.4782 31.4944C37.4162 30.5173 36.3117 30.1244 34.6762 30.1244C33.3381 30.1244 33.3593 30.0925 32.6478 32.6413C32.3292 33.7671 32.0424 34.691 32.0106 34.691C31.9787 34.691 31.8088 34.4361 31.6495 34.1282L31.3521 33.5759L31.7238 32.4077C32.1699 31.0165 32.1805 30.8359 31.8407 30.4961C31.5964 30.2412 31.5327 30.2306 30.0565 30.2306C28.6652 30.2306 28.4953 30.2518 28.2404 30.4536C27.8687 30.7403 27.8794 31.0058 28.3466 32.4502L28.7183 33.6396L28.4316 34.1388C28.2723 34.4149 28.1236 34.5848 28.113 34.5317C28.0918 34.468 27.8581 33.5653 27.582 32.5139C27.2634 31.2395 27.0191 30.5279 26.8704 30.358C26.6687 30.1456 26.5518 30.1244 25.5748 30.1244C23.8543 30.1244 22.7817 30.5067 21.6984 31.4944C21.4117 31.7599 20.9975 32.2696 20.7957 32.6201C20.1267 33.7458 20.0842 34.0007 20.0948 37.0805L20.1054 39.8418L19.224 38.9391C16.5371 36.146 15.114 32.5776 15.114 28.6376C15.114 25.9082 15.7406 23.5187 17.0362 21.2566C19.3089 17.2953 23.164 14.5978 27.6457 13.8225C28.7396 13.6419 31.3203 13.6313 32.4248 13.8119ZM26.4987 34.4255C27.2528 37.3142 27.359 37.5585 27.9006 37.5585C28.3042 37.5585 28.4847 37.3354 29.2281 35.9123C29.6317 35.1477 29.9928 34.5423 30.0459 34.5423C30.0883 34.553 30.4919 35.2008 30.938 35.9761C31.8194 37.5478 32.0637 37.7496 32.6159 37.4416C32.8708 37.3036 32.977 37.0168 33.7098 34.4786C34.6231 31.3138 34.4851 31.5156 35.5683 31.7068C36.3967 31.8661 37.0233 32.2059 37.5861 32.8006C38.5207 33.7989 38.5313 33.852 38.5632 37.6647L38.5951 41.01L37.9791 41.4029C36.6303 42.2525 34.8037 42.9747 33.062 43.357C31.7769 43.6438 28.3997 43.6438 27.1147 43.357C25.373 42.9747 23.5463 42.2525 22.1976 41.4029L21.5816 41.01L21.6135 37.6647C21.6453 34.4892 21.656 34.2981 21.879 33.8202C22.495 32.482 23.9287 31.5899 25.3624 31.643L25.7872 31.6643L26.4987 34.4255ZM30.2901 31.8448C30.2901 31.9192 30.2264 32.1528 30.1521 32.3546L30.014 32.7263L29.8866 32.3015C29.7273 31.728 29.7273 31.7174 30.0352 31.7174C30.1839 31.7174 30.3007 31.7811 30.2901 31.8448Z" fill="url(#paint4_linear_177_169)"/>
<path d="M25.723 17.3059C25.0115 17.7838 24.9902 17.8794 24.9902 21.7451C24.9902 23.6567 25.0433 25.4728 25.0964 25.7808C25.2557 26.6304 25.7867 27.6287 26.424 28.2552C27.4222 29.2642 28.548 29.7314 29.9286 29.7314C32.2013 29.7314 34.1554 28.234 34.7076 26.0781C34.8457 25.5471 34.8776 24.9205 34.8457 22.6478L34.8138 19.876L34.5271 19.2812C34.1979 18.6122 33.6669 18.0281 33.0403 17.6351C32.2225 17.1147 31.8402 17.0616 28.856 17.0616C26.1478 17.0616 26.0735 17.0723 25.723 17.3059ZM31.6597 18.6759C32.2756 18.8246 33.0615 19.5786 33.2421 20.184C33.3164 20.4176 33.3483 20.63 33.3164 20.6619C33.2845 20.7043 32.7217 20.7256 32.0739 20.7256C30.9269 20.7256 30.8525 20.715 30.0879 20.3433C29.302 19.9716 28.2081 19.2069 27.8152 18.7715L27.6134 18.5485H29.387C30.3959 18.5485 31.3729 18.6016 31.6597 18.6759ZM27.2523 20.2902L27.8683 20.8424L27.2842 21.3947C26.9656 21.7026 26.647 21.9469 26.5939 21.9469C26.5195 21.9469 26.4771 21.5433 26.4771 20.8318C26.4771 20.2158 26.5089 19.7167 26.562 19.7167C26.6045 19.7273 26.9125 19.9822 27.2523 20.2902ZM32.1907 22.308H33.3801V23.7523C33.3801 25.3984 33.2527 25.9932 32.7111 26.8003C31.5959 28.4783 29.0577 28.7225 27.5922 27.2994C26.8806 26.6198 26.5939 25.9082 26.5195 24.6975L26.4558 23.6992L27.1355 23.3594C27.5391 23.147 28.0807 22.7328 28.4736 22.3398L29.1533 21.6602L30.0667 21.9894C30.895 22.2761 31.118 22.3186 32.1907 22.308Z" fill="url(#paint5_linear_177_169)"/>
<path d="M4.73767 26.5453C3.36768 27.9153 2.90039 28.4463 2.90039 28.6375C2.90039 28.9773 6.45813 32.5669 6.78735 32.5669C7.16968 32.5669 7.57324 32.1633 7.57324 31.8022C7.57324 31.5367 7.3927 31.2925 6.54309 30.4323L5.51294 29.3809H8.39099C11.0248 29.3809 11.2903 29.3596 11.5133 29.1897C11.8425 28.9136 11.8425 28.3613 11.5133 28.0852C11.2903 27.9153 11.0248 27.894 8.39099 27.894H5.51294L6.54309 26.8427C7.67944 25.6957 7.78564 25.4408 7.30774 24.9735C6.84045 24.4956 6.70239 24.5806 4.73767 26.5453Z" fill="url(#paint6_linear_177_169)"/>
<path d="M52.8781 24.931C52.687 25.0797 52.602 25.2496 52.602 25.4727C52.602 25.7382 52.7826 25.9824 53.6322 26.8427L54.6623 27.894H51.7843C49.1505 27.894 48.885 27.9153 48.662 28.0852C48.3327 28.3613 48.3327 28.9136 48.662 29.1897C48.885 29.3596 49.1505 29.3809 51.7843 29.3809H54.6623L53.6322 30.4323C52.7826 31.2925 52.602 31.5367 52.602 31.8022C52.602 32.1633 53.0056 32.5669 53.3879 32.5669C53.7171 32.5669 57.2749 28.9773 57.2749 28.6375C57.2749 28.2976 53.7171 24.708 53.3879 24.708C53.2605 24.708 53.0374 24.8036 52.8781 24.931Z" fill="url(#paint7_linear_177_169)"/>
<path d="M14.1898 43.4207L12.1401 45.4597V44.0048C12.1401 42.6879 12.1189 42.5286 11.9277 42.3374C11.641 42.0507 11.1418 42.0613 10.8657 42.3586C10.6639 42.5817 10.6533 42.7197 10.6533 45.0986C10.6533 47.5837 10.6533 47.6156 10.8976 47.8386C11.1418 48.0616 11.2268 48.0723 13.6376 48.0723C16.0059 48.0723 16.1439 48.0616 16.3669 47.8599C16.6643 47.5837 16.6749 47.0846 16.3882 46.7979C16.197 46.6067 16.0377 46.5854 14.7208 46.5854H13.2659L15.3049 44.5358C17.0997 42.7303 17.344 42.4436 17.344 42.1462C17.344 41.9445 17.259 41.7214 17.1316 41.594C17.0042 41.4666 16.7811 41.3816 16.5793 41.3816C16.282 41.3816 15.9952 41.6259 14.1898 43.4207Z" fill="url(#paint8_linear_177_169)"/>
<path d="M43.0444 41.594C42.917 41.7214 42.832 41.9445 42.832 42.1462C42.832 42.4436 43.0763 42.7303 44.8711 44.5358L46.9102 46.5854H45.4552C44.1383 46.5854 43.979 46.6067 43.7878 46.7979C43.5011 47.0846 43.5117 47.5837 43.8091 47.8599C44.0321 48.0616 44.1702 48.0723 46.5491 48.0723C49.0342 48.0723 49.066 48.0723 49.2891 47.828C49.5121 47.5837 49.5227 47.4988 49.5227 45.088C49.5227 42.7197 49.5121 42.5817 49.3103 42.3586C49.0342 42.0613 48.535 42.0507 48.2483 42.3374C48.0571 42.5286 48.0359 42.6879 48.0359 44.0048V45.4597L45.9862 43.4207C44.1808 41.6259 43.894 41.3816 43.5967 41.3816C43.3949 41.3816 43.1719 41.4666 43.0444 41.594Z" fill="url(#paint9_linear_177_169)"/>
<path d="M29.8009 47.0103C29.3761 47.1802 29.3442 47.4138 29.3442 50.3662V53.2124L28.2928 52.1823C27.4326 51.3326 27.1884 51.1521 26.9229 51.1521C26.5618 51.1521 26.1582 51.5557 26.1582 51.938C26.1582 52.2672 29.7478 55.825 30.0876 55.825C30.4275 55.825 34.0171 52.2672 34.0171 51.938C34.0171 51.5557 33.6135 51.1521 33.2524 51.1521C32.9869 51.1521 32.7427 51.3326 31.8824 52.1823L30.8311 53.2124V50.3344C30.8311 47.743 30.8098 47.4351 30.6505 47.2439C30.4169 46.9784 30.1089 46.8934 29.8009 47.0103Z" fill="url(#paint10_linear_177_169)"/>
<defs>
<linearGradient id="paint0_linear_177_169" x1="2.26659" y1="34.4624" x2="145.456" y2="4.00232" gradientUnits="userSpaceOnUse">
<stop stop-color="#3B3BF9"/>
<stop offset="0.51" stop-color="#10E0F9"/>
<stop offset="1" stop-color="#92FFFF"/>
</linearGradient>
<linearGradient id="paint1_linear_177_169" x1="26.4518" y1="5.04018" x2="45.2255" y2="8.43166" gradientUnits="userSpaceOnUse">
<stop stop-color="#3B3BF9"/>
<stop offset="0.51" stop-color="#10E0F9"/>
<stop offset="1" stop-color="#92FFFF"/>
</linearGradient>
<linearGradient id="paint2_linear_177_169" x1="10.9033" y1="11.9178" x2="26.7525" y2="15.1408" gradientUnits="userSpaceOnUse">
<stop stop-color="#3B3BF9"/>
<stop offset="0.51" stop-color="#10E0F9"/>
<stop offset="1" stop-color="#92FFFF"/>
</linearGradient>
<linearGradient id="paint3_linear_177_169" x1="43.082" y1="11.9178" x2="58.9312" y2="15.1408" gradientUnits="userSpaceOnUse">
<stop stop-color="#3B3BF9"/>
<stop offset="0.51" stop-color="#10E0F9"/>
<stop offset="1" stop-color="#92FFFF"/>
</linearGradient>
<linearGradient id="paint4_linear_177_169" x1="14.7962" y1="25.5108" x2="93.0887" y2="41.4214" gradientUnits="userSpaceOnUse">
<stop stop-color="#3B3BF9"/>
<stop offset="0.51" stop-color="#10E0F9"/>
<stop offset="1" stop-color="#92FFFF"/>
</linearGradient>
<linearGradient id="paint5_linear_177_169" x1="25.3588" y1="22.2033" x2="49.103" y2="25.9635" gradientUnits="userSpaceOnUse">
<stop stop-color="#3B3BF9"/>
<stop offset="0.51" stop-color="#10E0F9"/>
<stop offset="1" stop-color="#92FFFF"/>
</linearGradient>
<linearGradient id="paint6_linear_177_169" x1="3.23137" y1="27.9107" x2="23.9896" y2="32.6833" gradientUnits="userSpaceOnUse">
<stop stop-color="#3B3BF9"/>
<stop offset="0.51" stop-color="#10E0F9"/>
<stop offset="1" stop-color="#92FFFF"/>
</linearGradient>
<linearGradient id="paint7_linear_177_169" x1="48.746" y1="27.8973" x2="69.5103" y2="32.6576" gradientUnits="userSpaceOnUse">
<stop stop-color="#3B3BF9"/>
<stop offset="0.51" stop-color="#10E0F9"/>
<stop offset="1" stop-color="#92FFFF"/>
</linearGradient>
<linearGradient id="paint8_linear_177_169" x1="10.9033" y1="44.0968" x2="26.7525" y2="47.3198" gradientUnits="userSpaceOnUse">
<stop stop-color="#3B3BF9"/>
<stop offset="0.51" stop-color="#10E0F9"/>
<stop offset="1" stop-color="#92FFFF"/>
</linearGradient>
<linearGradient id="paint9_linear_177_169" x1="43.082" y1="44.0968" x2="58.9312" y2="47.3198" gradientUnits="userSpaceOnUse">
<stop stop-color="#3B3BF9"/>
<stop offset="0.51" stop-color="#10E0F9"/>
<stop offset="1" stop-color="#92FFFF"/>
</linearGradient>
<linearGradient id="paint10_linear_177_169" x1="26.4518" y1="50.557" x2="45.2281" y2="53.9415" gradientUnits="userSpaceOnUse">
<stop stop-color="#3B3BF9"/>
<stop offset="0.51" stop-color="#10E0F9"/>
<stop offset="1" stop-color="#92FFFF"/>
</linearGradient>
</defs>
</svg>
